<?xml version="1.0" standalone="no"?>
<!DOCTYPE svg PUBLIC "-//W3C//DTD SVG 20010904//EN"
 "http://www.w3.org/TR/2001/REC-SVG-20010904/DTD/svg10.dtd">
<svg version="1.0" xmlns="http://www.w3.org/2000/svg"
 width="1000.000000pt" height="1000.000000pt" viewBox="0 0 1000.000000 1000.000000"
 preserveAspectRatio="xMidYMid meet">
<g transform="translate(0.000000,1000.000000) scale(0.100000,-0.100000)"
fill="#000000" stroke="none">
<path d="M4778 9635 c-2 -2 -50 -6 -108 -10 -174 -11 -273 -21 -390 -41 -25
-4 -49 -8 -55 -9 -20 -2 -120 -17 -135 -21 -8 -2 -55 -12 -105 -23 -348 -75
-650 -174 -975 -317 -94 -42 -369 -182 -401 -205 -15 -10 -30 -19 -34 -19 -10
0 -240 -145 -345 -218 -96 -67 -316 -236 -380 -293 -19 -17 -66 -58 -105 -92
-71 -63 -256 -247 -330 -328 -456 -498 -812 -1104 -1029 -1751 -41 -124 -111
-373 -122 -437 -3 -14 -9 -42 -14 -61 -5 -19 -12 -48 -14 -65 -15 -80 -36
-204 -41 -240 -4 -22 -8 -51 -11 -65 -2 -14 -6 -54 -10 -90 -3 -36 -7 -74 -9
-85 -26 -128 -26 -845 -1 -981 2 -10 7 -50 10 -89 4 -38 9 -77 11 -85 4 -17
17 -108 18 -127 1 -23 15 -14 54 35 21 26 40 49 43 52 3 3 86 102 184 220 98
118 187 226 199 240 12 14 53 63 91 110 39 47 75 90 80 96 6 6 87 104 180 217
l170 206 20 -27 c12 -15 31 -39 43 -52 12 -14 130 -155 263 -315 133 -159 244
-291 248 -292 4 -1 58 69 119 155 62 86 217 302 345 479 128 176 372 514 542
750 170 235 319 440 330 455 12 15 29 39 40 53 l19 27 148 -148 c82 -81 150
-146 152 -144 4 5 202 296 290 425 26 39 59 88 75 110 15 22 81 119 147 215
65 96 142 209 170 250 29 41 87 127 130 190 119 175 223 327 280 410 56 81
141 207 303 445 56 83 112 163 125 178 l22 28 42 -63 c23 -35 77 -115 120
-178 43 -63 128 -187 188 -275 228 -334 297 -434 392 -573 54 -79 105 -154
113 -167 17 -26 127 -187 239 -350 138 -202 299 -439 368 -542 37 -56 71 -102
75 -103 4 0 72 65 151 145 134 137 144 145 159 128 8 -10 103 -139 210 -288
107 -148 250 -346 318 -440 68 -93 173 -240 235 -325 61 -85 203 -281 315
-435 112 -154 224 -309 249 -345 24 -36 46 -67 48 -69 4 -6 19 11 167 189 70
85 140 169 155 185 15 17 45 52 66 80 38 47 78 95 100 119 6 6 28 33 49 59 22
26 42 46 47 45 4 -2 35 -37 69 -78 34 -41 79 -95 100 -120 21 -25 77 -92 125
-150 48 -58 104 -125 124 -150 21 -25 152 -182 291 -350 139 -168 256 -306
260 -308 4 -2 11 21 15 50 4 29 9 61 10 70 2 9 7 48 10 85 4 37 8 79 11 93 26
151 25 779 -1 985 -2 17 -7 56 -10 87 -3 31 -7 65 -9 75 -2 10 -7 38 -10 63
-3 25 -9 59 -11 75 -7 40 -24 133 -31 170 -4 27 -29 135 -39 175 -2 8 -11 44
-20 80 -34 139 -139 464 -184 565 -5 11 -35 81 -66 155 -225 531 -583 1056
-1011 1484 -101 102 -152 150 -260 246 -174 156 -551 426 -740 530 -21 12 -70
39 -109 61 -104 58 -316 161 -430 208 -55 23 -109 46 -120 51 -63 28 -361 130
-425 146 -8 2 -67 17 -130 33 -63 17 -160 40 -215 52 -130 28 -134 28 -175 34
-19 3 -46 7 -60 10 -13 2 -42 7 -65 10 -38 5 -89 12 -145 20 -14 2 -59 7 -100
10 -41 3 -97 9 -125 12 -50 5 -562 12 -567 8z"/>
<path d="M4991 7292 c-12 -17 -21 -33 -21 -36 0 -4 -12 -25 -26 -48 -14 -23
-36 -60 -49 -82 -23 -42 -177 -309 -194 -336 -6 -8 -38 -64 -73 -125 -34 -60
-67 -118 -73 -127 -19 -32 -78 -133 -101 -173 -22 -40 -416 -719 -431 -743 -6
-9 -46 36 -132 149 -115 149 -125 160 -138 143 -11 -16 -169 -295 -259 -459
-12 -22 -52 -94 -89 -160 -37 -66 -101 -181 -142 -255 -157 -283 -319 -569
-385 -682 l-68 -117 -134 197 c-73 108 -151 223 -172 254 -21 31 -42 56 -47
55 -4 -1 -22 -26 -40 -55 -17 -29 -131 -210 -252 -402 -121 -192 -231 -367
-245 -389 -60 -97 -204 -325 -270 -431 -41 -63 -78 -124 -85 -135 -6 -11 -35
-57 -64 -102 l-52 -82 -42 52 c-24 29 -91 114 -151 190 -60 76 -112 135 -116
130 -8 -8 -199 -291 -428 -631 l-116 -173 67 -132 c207 -411 436 -743 753
-1092 169 -186 450 -443 629 -576 33 -24 65 -48 71 -54 6 -5 20 -16 30 -23 11
-7 56 -38 101 -70 174 -121 356 -229 583 -344 l115 -58 2055 0 2055 0 110 56
c288 146 490 270 735 452 104 77 227 175 240 191 3 3 28 24 55 46 61 48 416
403 465 464 19 24 42 51 51 60 9 9 53 63 98 121 46 58 89 113 96 122 73 91
277 411 365 573 53 98 140 274 140 283 0 4 -71 112 -157 240 -87 127 -207 304
-267 393 -122 180 -103 171 -168 88 -51 -65 -240 -304 -243 -307 -1 -1 -50 73
-108 165 -57 92 -205 328 -327 523 -123 195 -248 396 -280 445 -31 50 -92 146
-135 215 -109 176 -158 250 -164 250 -3 0 -43 -56 -88 -123 -166 -248 -253
-372 -263 -375 -5 -2 -13 5 -17 15 -4 10 -24 46 -45 81 -21 34 -38 67 -38 72
0 6 -5 10 -11 10 -5 0 -8 4 -4 9 3 5 1 12 -4 15 -4 3 -39 61 -76 128 -38 68
-128 229 -200 358 -73 129 -147 262 -165 295 -18 33 -73 132 -123 220 -105
188 -150 268 -215 387 -26 48 -50 88 -53 88 -3 0 -61 -72 -129 -161 l-123
-160 -54 93 c-29 51 -58 100 -63 108 -19 31 -103 175 -120 204 -30 54 -458
793 -583 1006 -66 113 -131 225 -145 250 -13 25 -26 46 -27 48 -2 2 -12 -10
-24 -26z"/>
</g>
</svg>
